<?xml version="1.0" encoding="UTF-8" standalone="no"?>
<!-- Created with Inkscape (http://www.inkscape.org/) -->

<svg
   xmlns:dc="http://purl.org/dc/elements/1.1/"
   xmlns:cc="http://creativecommons.org/ns#"
   xmlns:rdf="http://www.w3.org/1999/02/22-rdf-syntax-ns#"
   xmlns:svg="http://www.w3.org/2000/svg"
   xmlns="http://www.w3.org/2000/svg"
   xmlns:sodipodi="http://sodipodi.sourceforge.net/DTD/sodipodi-0.dtd"
   xmlns:inkscape="http://www.inkscape.org/namespaces/inkscape"
   version="1.1"
   id="svg2"
   xml:space="preserve"
   width="1053.6667"
   height="815.50665"
   viewBox="0 0 1053.6667 815.50665"
   sodipodi:docname="MSX.svg"
   inkscape:version="0.92.3 (2405546, 2018-03-11)"><metadata
     id="metadata8"><rdf:RDF><cc:Work
         rdf:about=""><dc:format>image/svg+xml</dc:format><dc:type
           rdf:resource="http://purl.org/dc/dcmitype/StillImage" /><dc:title></dc:title></cc:Work></rdf:RDF></metadata><defs
     id="defs6" /><sodipodi:namedview
     pagecolor="#ffffff"
     bordercolor="#666666"
     borderopacity="1"
     objecttolerance="10"
     gridtolerance="10"
     guidetolerance="10"
     inkscape:pageopacity="0"
     inkscape:pageshadow="2"
     inkscape:window-width="1366"
     inkscape:window-height="740"
     id="namedview4"
     showgrid="false"
     inkscape:zoom="0.28939065"
     inkscape:cx="526.83337"
     inkscape:cy="407.75333"
     inkscape:window-x="0"
     inkscape:window-y="0"
     inkscape:window-maximized="1"
     inkscape:current-layer="g10" /><g
     id="g10"
     inkscape:groupmode="layer"
     inkscape:label="ink_ext_XXXXXX"
     transform="matrix(1.3333333,0,0,-1.3333333,0,815.50667)"><g
       id="g12"
       transform="scale(0.1)"><path
         d="M 0,0 H 7902.5 V 6116.25 H 0 Z"
         style="fill:#313797;fill-opacity:1;fill-rule:nonzero;stroke:none"
         id="path14"
         inkscape:connector-curvature="0" /><path
         d="M 643.75,1828.75 H 7284.38 V 4297.5 H 643.75 Z"
         style="fill:#231f20;fill-opacity:1;fill-rule:nonzero;stroke:none"
         id="path16"
         inkscape:connector-curvature="0" /><path
         d="m 1182.81,2110 h 500 l 226.57,898.92 226.56,-898.92 h 406.25 l 226.56,898.92 226.56,-898.92 h 1257.82 c 332.17,0 601.56,269.38 601.56,601.56 0,332.18 -269.39,601.56 -601.56,601.56 h -343.75 c -64.7,0 -117.19,49.07 -117.19,109.38 0,60.31 52.49,109.37 117.19,109.37 H 5070.62 L 5378.13,3114.06 4651.56,2110 h 640.63 l 406.25,561.42 406.25,-561.42 h 640.62 l -726.56,1004.06 664.06,902.19 h -640.62 l -343.75,-459.38 -343.75,459.38 H 3878.13 c -332.19,0 -601.57,-269.38 -601.57,-601.56 0,-332.19 269.38,-601.57 601.57,-601.57 h 343.75 c 64.68,0 117.18,-49.06 117.18,-109.37 0,-60.31 -52.5,-109.38 -117.18,-109.38 h -849.54 l -361.4,1421.88 h -453.13 l -218.75,-852.34 -218.75,852.34 H 1667.19 L 1182.81,2110"
         style="fill:#ffffff;fill-opacity:1;fill-rule:nonzero;stroke:none"
         id="path18"
         inkscape:connector-curvature="0" /></g></g></svg>